# xmcd
#
# Track frame offsets:
#	150
#	15420
#	29117
#	45139
#	60462
#	76073
#	91446
#	112011
#	132343
#	150090
#
# Disc length: 2231 seconds
#
# Revision: 0
# Processed by: cddbd v1.4PL0 Copyright (c) Steve Scherf et al.
# Submitted via: dBpowerAMP V4.0
#
DISCID=6a08b50a
DTITLE=Damon Troy - Damon Troy
DYEAR=2002
DGENRE=Country/ Cajun
TTITLE0=Triangle Club Special
TTITLE1=Misery 
TTITLE2=I Can Sure Love You
TTITLE3=Big Mamou
TTITLE4=Radio Up, Windows Down
TTITLE5=Little Girl Next Door
TTITLE6=Secrets That You Keep
TTITLE7=Fool
TTITLE8=Petite Ou La Grosse (Little Or Big)
TTITLE9=Les Haricots Son Pas Salle (Zydeco)
EXTD=MTE Records
EXTT0=
EXTT1=
EXTT2=
EXTT3=
EXTT4=
EXTT5=
EXTT6=
EXTT7=
EXTT8=
EXTT9=
PLAYORDER=
